<svg xmlns:dc="http://purl.org/dc/elements/1.1/" xmlns:cc="http://creativecommons.org/ns#" xmlns:rdf="http://www.w3.org/1999/02/22-rdf-syntax-ns#" xmlns:svg="http://www.w3.org/2000/svg" xmlns="http://www.w3.org/2000/svg" version="1.1" viewBox="0 0 100.00001 125" xml:space="preserve" x="0px" y="0px"><path d="M 44.0625,5 42.9375,6.9375 46.0625,7 44.375,11.71875 c 0.380177,0.0501 0.721534,0.150883 1.03125,0.28125 0.358927,0.155035 0.670072,0.373251 0.9375,0.6875 0.211153,0.23929 0.385109,0.496631 0.5,0.75 C 46.95864,13.691081 47,13.913866 47,14.125 47,14.359545 46.921394,14.57901 46.75,14.75 46.57862,14.921415 46.369036,15 46.125,15 45.665013,15 45.386016,14.747227 45.25,14.25 45.095142,13.663523 44.716205,13.286256 44.125,13.09375 44.11154,13.09095 44.1071,13.0653 44.09375,13.0625 l 0,2.9375 0.03125,0 c 0.581714,0.159763 1.030115,0.306088 1.375,0.4375 0.345026,0.131253 0.665326,0.313877 0.9375,0.5625 0.290875,0.258132 0.498931,0.578555 0.65625,0.9375 0.157125,0.358944 0.25,0.760485 0.25,1.1875 0,0.535105 -0.123915,1.033195 -0.375,1.5 -0.0058,0.01063 -0.02541,0.02093 -0.03125,0.03125 l 1.875,2.5 2.53125,-1.90625 1.71875,3.15625 C 56.778378,19.699411 56.469487,12.844505 52.125,8.5 49.885111,6.2601294 46.996921,5.0973596 44.0625,5 z M 42.21875,5.0625 C 39.637837,5.3680366 37.136643,6.5196425 35.15625,8.5 30.568594,13.08769 30.474732,20.485786 34.875,25.1875 l 2.1875,-0.59375 -2.1875,-2.28125 5.15625,-2.40625 c -0.05119,-0.194931 -0.09375,-0.371801 -0.09375,-0.5625 0,-0.22523 0.105271,-0.444288 0.28125,-0.625 0.175931,-0.180712 0.39339,-0.25 0.65625,-0.25 0.211152,0 0.38576,0.02626 0.53125,0.125 0.145544,0.09853 0.256383,0.259444 0.3125,0.4375 0.126685,0.384816 0.218522,0.670896 0.3125,0.875 0.09378,0.203927 0.247456,0.393581 0.4375,0.5625 0.190027,0.169113 0.435751,0.317213 0.75,0.40625 l 0,-3.3125 C 42.59436,17.389721 42.076252,17.212267 41.65625,17 41.233751,16.786581 40.887896,16.488111 40.625,16.09375 40.362087,15.699654 40.21875,15.181861 40.21875,14.5625 c 0,-0.806925 0.267448,-1.452681 0.78125,-1.96875 0.529209,-0.528855 1.361657,-0.831876 2.21875,-0.90625 l 0,-1.03125 c 0,-0.239397 0.198121,-0.40625 0.4375,-0.40625 0.239379,0 0.4375,0.166836 0.4375,0.40625 l 0,0.25 0.28125,-1.9375 -3.15625,-0.4375 1,-3.46875 z m 1,8 c -0.327566,0.03579 -0.687837,0.278388 -0.90625,0.46875 -0.220661,0.192488 -0.34375,0.4544 -0.34375,0.84375 0,0.370773 0.106111,0.653706 0.3125,0.84375 0.204689,0.18861 0.520526,0.377401 0.9375,0.53125 l 0,-2.6875 z m 27.125,1.4375 c -0.687432,-0.02152 -1.285346,0.219063 -1.8125,0.59375 l -0.03125,0 -10.125,6.28125 c -0.257353,0.161286 -0.453488,0.404009 -0.5625,0.6875 -2.177751,5.646815 -7.661861,9.6875 -14.09375,9.6875 -0.378158,0 -0.754014,-0.03541 -1.125,-0.0625 l -2.875,6.34375 L 57.6875,36.625 45.125,82.6875 c 1.569139,0.08705 3.146242,0.125 4.75,0.125 3.796526,0 7.510166,-0.247819 11.09375,-0.71875 l 3.75,11.1875 a 1.9774145,3.4155644 0 0 0 3.40625,0 L 72.6875,79.625 c 0.057,-0.01665 0.130569,-0.01442 0.1875,-0.03125 l 0,-0.40625 c 4.96955,-3.883508 8.7881,-8.979165 10.9375,-14.8125 l 4.78125,0 c 3.133248,0 5.71875,-2.555793 5.71875,-5.6875 l 0,-12.875 c 0,-3.132044 -2.585608,-5.6875 -5.71875,-5.6875 l -5.90625,0 C 80.809487,36.179022 78.151702,32.626849 74.875,29.65625 L 72.84375,17.09375 C 72.76739,16.469696 72.566672,15.86959 72.15625,15.375 71.730705,14.86219 71.027569,14.522631 70.34375,14.5 z m -26.25,3.3125 0,3.125 c 0.01328,-0.0028 0.0179,-0.02935 0.03125,-0.03125 0.473836,-0.09399 0.835635,-0.276212 1.09375,-0.5625 0.257919,-0.28611 0.375,-0.619735 0.375,-1 0,-0.408209 -0.12388,-0.714518 -0.375,-0.9375 -0.251049,-0.222733 -0.605854,-0.407678 -1.09375,-0.5625 L 44.09375,17.8125 z m -3.96875,2.375 -2.65625,1.9375 1.90625,2.5625 -3.15625,1.71875 c 4.603681,3.636479 11.269747,3.42072 15.625,-0.65625 L 51.25,23.59375 49,25.75 46.75,20.96875 c -0.231995,0.313824 -0.544224,0.593202 -0.90625,0.8125 -0.530731,0.295603 -1.123467,0.446291 -1.75,0.5 l 0,1.03125 c 0,0.239379 -0.198121,0.4375 -0.4375,0.4375 -0.239379,0 -0.4375,-0.198121 -0.4375,-0.4375 l 0,-1.03125 c -0.514422,-0.04416 -1.014823,-0.176456 -1.4375,-0.375 C 41.370598,21.709175 41.024689,21.480836 40.75,21.1875 40.475541,20.894376 40.287503,20.598209 40.15625,20.28125 40.14456,20.25327 40.13569,20.21546 40.125,20.1875 z m -9.75,4.90625 c -0.214375,0.01116 -0.438799,0.0774 -0.625,0.1875 -8.330878,4.903498 -14.386481,12.846053 -16.25,22.1875 l -2.125,0 c -3.1216846,0 -5.6875,2.565974 -5.6875,5.6875 0,3.121489 2.5658154,5.71875 5.6875,5.71875 l 2,0 c 1.38207,8.080839 5.890297,15.154321 12.3125,20.21875 l 4.71875,14.1875 a 1.9774145,3.4155644 0 0 0 3.4375,0 l 3.8125,-11.34375 c 2.210334,0.322767 4.449744,0.540894 6.75,0.6875 0.335534,-7.30917 1.436759,-31.38082 1.3125,-33.4375 L 30.9375,48.125 34.3125,28.4375 C 33.294404,27.624695 32.372803,26.703777 31.59375,25.65625 31.31049,25.273825 30.846586,25.069241 30.375,25.09375 z m 38.6875,10.125 c 0.555123,0 1.078807,0.08505 1.59375,0.21875 -0.06359,-0.0032 -0.123059,-0.03125 -0.1875,-0.03125 -2.048021,0 -3.65625,1.608247 -3.65625,3.65625 0,2.048162 1.608229,3.6875 3.65625,3.6875 2.048002,0 3.6875,-1.639338 3.6875,-3.6875 0,-0.758174 -0.238895,-1.449279 -0.625,-2.03125 1.215249,1.174432 1.96875,2.812864 1.96875,4.625 0,3.544644 -2.89305,6.4375 -6.4375,6.4375 -3.544467,0 -6.4375,-2.892856 -6.4375,-6.4375 0,-3.54445 2.893033,-6.4375 6.4375,-6.4375 z" transform="translate(0,-5e-6)" style="text-indent:0;text-transform:none;direction:ltr;block-progression:tb;baseline-shift:baseline;color:#000000;enable-background:accumulate;" fill="#000000" fill-opacity="1" stroke="none" marker="none" visibility="visible" display="inline" overflow="visible"/><text x="0" y="115" fill="#000000" font-size="5px" font-weight="bold" font-family="'Helvetica Neue', Helvetica, Arial-Unicode, Arial, Sans-serif">Created by Aha-Soft</text><text x="0" y="120" fill="#000000" font-size="5px" font-weight="bold" font-family="'Helvetica Neue', Helvetica, Arial-Unicode, Arial, Sans-serif">from the Noun Project</text></svg>